Simulation
nRows=20
nColumns=15
endheader
time  TH_x TH_y TH_z SC_y  SC_z  SC_x  AC_y  AC_z  AC_x  GH_y  GH_z  GH_yy  EL_x  PS_y
1.55  0.000000  0.000000  0.000000  -34.77564467366874  6.0616321547481435  81.77069190616983  46.14357061533858  -38.35331862403973  -43.133331195978386  21.335165929624722  55.46980794141846  -20.239783388998458  17.965776055789497  0.000000
1.581  0.000000  0.000000  0.000000  -35.170864900021854  6.420847024523161  82.15482999870392  46.29433703332453  -38.05038235064883  -42.62270612847857  21.24892709466036  55.91391208461609  -20.341142892564672  17.93344509148191  0.000000
1.612  0.000000  0.000000  0.000000  -35.52524694795224  6.73485450874705  82.4687726211724  46.43724107665742  -37.81053272465806  -42.12969279721569  21.129104886720597  56.323044522732175  -20.38783650256225  17.90631058403552  0.000000
1.643  0.000000  0.000000  0.000000  -35.838341112585276  6.9859658732087295  82.7204360454953  46.58128833040133  -37.6314072890963  -41.675435147431465  20.988307340216988  56.68497177686783  -20.409122524788938  17.89815855562583  0.000000
1.674  0.000000  0.000000  0.000000  -36.11924293810043  7.172716388904551  82.92386215651297  46.726668326382224  -37.49653025744837  -41.276433952002506  20.861566089187036  56.96907143593915  -20.429120338597134  17.91340858309191  0.000000
1.705  0.000000  0.000000  0.000000  -36.377357059340596  7.306155728950714  83.09133082760194  46.863625770629575  -37.38889059182648  -40.94431798157248  20.787816536217825  57.14381438278379  -20.455670553242808  17.945531671843668  0.000000
1.736  0.000000  0.000000  0.000000  -36.61064044907941  7.398441111322616  83.22732446177909  46.97665343527044  -37.30048635655345  -40.69285888509495  20.79207349708989  57.192180788597824  -20.487016955479653  17.9840423237837  0.000000
1.767  0.000000  0.000000  0.000000  -36.8030629855091  7.4547490489582495  83.32524805481411  47.04816766884978  -37.23592244708691  -40.5417530954591  20.878542850355434  57.11996399597141  -20.51885515126792  18.020718454297807  0.000000
1.798  0.000000  0.000000  0.000000  -36.930072976887175  7.473133488571378  83.37036240397651  47.06261797867051  -37.20696322758985  -40.51393790478211  21.035105158354067  56.94883061833459  -20.548857824501425  18.049994310569765  0.000000
1.829  0.000000  0.000000  0.000000  -36.96609482136703  7.446592515760802  83.35356002905628  47.01066389587012  -37.225657245833936  -40.62986711045031  21.24127853602015  56.697539645328206  -20.580837770637654  18.068177647489993  0.000000
1.8599999999999999  0.000000  0.000000  0.000000  -36.89890475626297  7.365022040592101  83.28014594065947  46.89473842258435  -37.30482365414738  -40.896109246965416  21.47929426522456  56.37147199433199  -20.63353630932295  18.075175680514523  0.000000
1.891  0.000000  0.000000  0.000000  -36.73198707815204  7.219181031522837  83.16430994779249  46.72917511665799  -37.4540332720239  -41.29895792949997  21.736879453714963  55.96161682171568  -20.739085365323888  18.075432458791248  0.000000
1.922  0.000000  0.000000  0.000000  -36.478379373084344  7.004238764186641  83.01923738425782  46.53400680718674  -37.678991397326406  -41.809618872177985  22.00271465310324  55.45391087962381  -20.92811445797005  18.0750253205755  0.000000
1.953  0.000000  0.000000  0.000000  -36.15907345957642  6.722695904948419  82.84931513601525  46.32486695493685  -37.983742801447825  -42.39382185579539  22.266713442228916  54.84146852228516  -21.207140766079153  18.08001481282249  0.000000
1.984  0.000000  0.000000  0.000000  -35.798535932272245  6.38512842882898  82.64864608135632  46.10553534969951  -38.36857130682485  -43.022967305728415  22.52239158451289  54.12883593005155  -21.546529754089757  18.09668739452871  0.000000
2.015  0.000000  0.000000  0.000000  -35.41995816224057  6.00716873666177  82.40655441836391  45.86811871804381  -38.828083277773096  -43.67764284989396  22.767512147768887  53.327857312827184  -21.89114663598108  18.131095135456658  0.000000
2.046  0.000000  0.000000  0.000000  -35.040847061209625  5.603072658461823  82.1148264013797  45.60190465035605  -39.35046861162464  -44.34577834580099  23.002384739695913  52.45101180095292  -22.188101902401094  18.1878946852478  0.000000
2.077  0.000000  0.000000  0.000000  -34.671248602145916  5.181434363703962  81.77109629462757  45.301156801470285  -39.91814155827876  -45.01813554772314  23.226814472654386  51.50721483555043  -22.40834749249256  18.26772321442035  0.000000
2.108  0.000000  0.000000  0.000000  -34.316133712624605  4.745298328730886  81.3771957216474  44.96812292672177  -40.51093055268501  -45.685553306501355  23.439713317848774  50.503373156639086  -22.55188189488126  18.36650403159359  0.000000
2.139  0.000000  0.000000  0.000000  -33.97900586144764  4.294393224105279  80.9359015116738  44.610144954230556  -41.10875203641739  -46.33897735262926  23.640655619613455  49.44802985177758  -22.633813052575295  18.478548939394955  0.000000
